<svg version="1.1" id="Layer_1" xmlns="http://www.w3.org/2000/svg" xmlns:xlink="http://www.w3.org/1999/xlink" x="0px" y="0px"
	 width="100%" viewBox="0 0 500 500" enable-background="new 0 0 500 500" xml:space="preserve">
<path fill="#FFFFFF" opacity="1.000000" stroke="none" 
	d="
M1.000000,193.000000 
	C1.000000,128.682602 1.000000,64.865211 1.000000,1.023907 
	C167.609100,1.023907 334.218231,1.023907 500.913666,1.023907 
	C500.913666,167.567459 500.913666,334.134979 500.913666,500.851257 
	C334.333435,500.851257 167.666733,500.851257 1.000000,500.851257 
	C1.000000,398.448303 1.000000,295.974152 1.000000,193.000000 
M370.504547,81.462891 
	C366.335602,80.037521 362.166656,78.612160 357.349915,76.825638 
	C352.573883,75.196053 347.797882,73.566460 342.528046,71.413010 
	C337.351807,69.642197 332.175568,67.871376 326.287354,65.862175 
	C321.549774,64.173439 316.812195,62.484695 311.590637,60.272934 
	C306.726074,58.591965 301.861481,56.910995 296.328491,54.892681 
	C290.885284,52.983982 285.442078,51.075287 279.352722,48.803707 
	C273.593750,46.813057 267.834778,44.822407 261.595398,42.301659 
	C256.917389,40.615685 252.324051,38.593189 247.525665,37.385426 
	C245.119446,36.779774 242.339737,37.657955 238.974289,37.903084 
	C233.637146,39.900131 228.300018,41.897182 222.199738,43.911533 
	C217.083450,45.787060 211.967148,47.662590 206.091370,49.702316 
	C201.681595,51.330368 197.271835,52.958420 192.095108,54.729858 
	C187.692139,56.360321 183.289185,57.990780 178.122513,59.754547 
	C172.726898,61.766582 167.331284,63.778622 161.168015,65.848785 
	C155.060059,68.062798 148.952103,70.276817 142.092377,72.684090 
	C136.692886,74.691307 131.293396,76.698517 125.128220,78.799355 
	C120.418861,80.554077 115.709496,82.308792 110.246933,84.047394 
	C105.582420,85.826195 100.917908,87.604996 95.672737,89.842697 
	C91.142906,91.218224 86.613075,92.593758 81.957466,94.007477 
	C81.957466,104.977768 81.957466,115.544174 81.289024,125.887047 
	C80.984711,125.297913 80.692802,124.701988 80.374275,124.120644 
	C72.851578,110.391060 61.009178,107.636108 48.728607,110.398788 
	C35.342392,113.410179 28.510057,126.300774 28.812584,136.886810 
	C29.344395,155.496170 28.919680,174.131760 28.977339,192.756104 
	C29.028124,209.159393 44.857002,221.731903 60.928909,218.576706 
	C70.913254,216.616592 77.156433,210.358002 81.930969,202.956924 
	C81.926460,245.598343 81.921951,288.239777 81.237053,330.672485 
	C76.506157,314.963562 65.076042,307.492004 48.506134,310.066772 
	C36.532551,311.927307 26.495279,323.720947 26.885231,338.426147 
	C27.362051,356.407135 26.935196,374.410706 27.021149,392.403961 
	C27.079615,404.643219 35.160969,414.781311 47.390579,418.286652 
	C58.377850,421.435852 70.698189,416.829010 77.051376,407.021912 
	C78.891579,404.181274 80.311218,401.068207 81.987144,399.005341 
	C81.987144,416.263367 81.987144,433.521393 81.987144,450.833099 
	C87.720612,450.833099 92.859291,450.833099 98.913651,450.986694 
	C102.941864,450.935455 106.970085,450.884216 111.914032,450.985992 
	C115.942307,450.935028 119.970573,450.884064 124.921608,450.986450 
	C129.947342,450.935333 134.973083,450.884216 140.921585,450.986298 
	C145.947372,450.935242 150.973160,450.884216 156.923889,450.986053 
	C162.615509,450.935059 168.307129,450.884064 174.924622,450.986023 
	C181.282333,450.934998 187.640060,450.883972 194.923615,450.985687 
	C200.948471,450.934784 206.973312,450.883881 213.921295,450.985107 
	C218.947037,450.934418 223.972763,450.883728 229.920166,450.984650 
	C234.613266,450.934082 239.306366,450.883514 244.923889,450.984467 
	C250.282364,450.933960 255.640854,450.883453 261.925293,450.984528 
	C268.283325,450.933990 274.641327,450.883453 281.925354,450.984344 
	C288.283142,450.933899 294.640930,450.883453 301.924957,450.984039 
	C308.282898,450.933685 314.640869,450.883331 321.924805,450.983704 
	C327.949860,450.933472 333.974884,450.883270 340.926239,450.983551 
	C347.617188,450.933350 354.308167,450.883179 361.925415,450.983246 
	C368.283661,450.933167 374.641937,450.883118 381.921814,450.983093 
	C386.614349,450.933136 391.306885,450.883179 396.908691,450.982819 
	C399.845398,450.982819 402.782104,450.982819 405.999725,450.982819 
	C405.999725,434.680847 405.974548,418.895996 406.036011,403.111511 
	C406.042633,401.409363 406.551880,399.709229 407.007416,398.737122 
	C411.780151,413.298096 423.839935,421.030640 438.405945,418.869354 
	C451.567108,416.916504 460.989105,404.953430 460.998535,390.148560 
	C461.009766,372.487061 461.044159,354.825409 460.986938,337.164093 
	C460.942932,323.575745 451.093201,311.352722 439.201935,309.957306 
	C422.441162,307.990448 410.439178,315.763123 406.150543,330.396912 
	C406.100250,318.761871 405.999603,307.126801 406.009430,295.491791 
	C406.035522,264.568756 406.109253,233.645767 406.723145,203.131897 
	C413.541687,215.800812 424.889099,221.190155 438.227600,218.094635 
	C449.735596,215.423935 458.789795,204.844360 458.929596,193.052536 
	C459.158508,173.746552 459.213501,154.432098 458.902130,135.128311 
	C458.680695,121.401413 447.398621,110.583763 433.714874,109.691582 
	C420.903870,108.856300 412.181396,114.702072 406.041229,124.482048 
	C406.041229,114.431595 406.041229,104.381142 406.041229,94.099579 
	C402.562317,93.014923 399.285919,91.993408 395.502838,90.461006 
	C391.668365,89.362831 387.833862,88.264664 383.342957,86.858833 
	C379.230713,85.231865 375.118500,83.604889 370.504547,81.462891 
z"/>
<path fill="#570000" opacity="1.000000" stroke="none" 
	d="
M81.957466,126.110573 
	C81.957466,115.544174 81.957466,104.977768 81.957466,94.007477 
	C86.613075,92.593758 91.142906,91.218224 96.338715,89.927719 
	C97.336456,92.255913 97.957649,94.498962 97.958527,96.742256 
	C98.004829,214.772522 97.998642,332.802826 97.997963,450.833099 
	C92.859291,450.833099 87.720612,450.833099 81.987144,450.833099 
	C81.987144,433.521393 81.987144,416.263367 81.982132,398.221039 
	C81.966263,397.006012 81.955406,396.575287 82.010429,395.667297 
	C82.032303,374.401672 81.988289,353.613281 81.961914,332.500671 
	C81.958855,331.744690 81.938148,331.312927 81.917435,330.881195 
	C81.921951,288.239777 81.926460,245.598343 81.923386,202.022766 
	C81.929688,176.095932 81.943573,151.103256 81.957466,126.110573 
z"/>
<path fill="#010101" opacity="1.000000" stroke="none" 
	d="
M81.944550,396.144562 
	C81.955406,396.575287 81.966263,397.006012 81.950386,397.758362 
	C80.311218,401.068207 78.891579,404.181274 77.051376,407.021912 
	C70.698189,416.829010 58.377850,421.435852 47.390579,418.286652 
	C35.160969,414.781311 27.079615,404.643219 27.021149,392.403961 
	C26.935196,374.410706 27.362051,356.407135 26.885231,338.426147 
	C26.495279,323.720947 36.532551,311.927307 48.506134,310.066772 
	C65.076042,307.492004 76.506157,314.963562 81.577240,330.776855 
	C81.938148,331.312927 81.958855,331.744690 81.591011,332.745300 
	C81.096771,353.572784 80.980621,373.831329 80.930420,394.090088 
	C80.928719,394.774078 81.591492,395.459686 81.944550,396.144562 
z"/>
<path fill="#010101" opacity="1.000000" stroke="none" 
	d="
M406.776398,330.956573 
	C410.439178,315.763123 422.441162,307.990448 439.201935,309.957306 
	C451.093201,311.352722 460.942932,323.575745 460.986938,337.164093 
	C461.044159,354.825409 461.009766,372.487061 460.998535,390.148560 
	C460.989105,404.953430 451.567108,416.916504 438.405945,418.869354 
	C423.839935,421.030640 411.780151,413.298096 406.988617,398.055725 
	C406.955200,396.942047 406.940582,396.509796 406.988708,395.607147 
	C407.015839,374.059418 406.980255,352.982056 406.946991,331.659821 
	C406.949310,331.414917 406.776398,330.956573 406.776398,330.956573 
z"/>
<path fill="#010101" opacity="1.000000" stroke="none" 
	d="
M81.623245,125.998810 
	C81.943573,151.103256 81.929688,176.095932 81.925636,201.555389 
	C77.156433,210.358002 70.913254,216.616592 60.928909,218.576706 
	C44.857002,221.731903 29.028124,209.159393 28.977339,192.756104 
	C28.919680,174.131760 29.344395,155.496170 28.812584,136.886810 
	C28.510057,126.300774 35.342392,113.410179 48.728607,110.398788 
	C61.009178,107.636108 72.851578,110.391060 80.374275,124.120644 
	C80.692802,124.701988 80.984711,125.297913 81.623245,125.998810 
z"/>
<path fill="#010101" opacity="1.000000" stroke="none" 
	d="
M406.160248,125.484573 
	C412.181396,114.702072 420.903870,108.856300 433.714874,109.691582 
	C447.398621,110.583763 458.680695,121.401413 458.902130,135.128311 
	C459.213501,154.432098 459.158508,173.746552 458.929596,193.052536 
	C458.789795,204.844360 449.735596,215.423935 438.227600,218.094635 
	C424.889099,221.190155 413.541687,215.800812 406.407898,202.480438 
	C406.115173,176.380829 406.137726,150.932709 406.160248,125.484573 
z"/>
<path fill="#F70000" opacity="1.000000" stroke="none" 
	d="
M395.999420,450.833221 
	C391.306885,450.883179 386.614349,450.933136 381.460907,450.450134 
	C380.999329,375.692566 380.998627,301.467926 381.279053,227.170807 
	C382.040955,226.667572 382.521698,226.236832 383.067505,225.404358 
	C383.421692,222.715759 383.960480,220.429184 383.963074,218.141983 
	C384.012909,174.483536 383.999603,130.825012 383.999390,87.166496 
	C387.833862,88.264664 391.668365,89.362831 395.753296,91.186920 
	C396.002289,211.552963 396.000854,331.193085 395.999420,450.833221 
z"/>
<path fill="#5E0000" opacity="1.000000" stroke="none" 
	d="
M98.455811,450.909912 
	C97.998642,332.802826 98.004829,214.772522 97.958527,96.742256 
	C97.957649,94.498962 97.336456,92.255913 96.629044,89.698273 
	C100.917908,87.604996 105.582420,85.826195 110.679825,84.466423 
	C111.408386,87.167488 111.958977,89.449203 111.961853,91.731606 
	C112.013802,132.969116 111.984825,174.206726 112.047958,215.444214 
	C112.050827,217.311371 112.758598,219.177460 112.920532,221.315399 
	C109.832413,223.273163 106.961815,224.959564 103.783615,226.826691 
	C106.467850,226.944733 108.736557,227.044510 111.003677,227.603882 
	C111.000824,302.320007 110.999565,376.576508 110.998299,450.833008 
	C106.970085,450.884216 102.941864,450.935455 98.455811,450.909912 
z"/>
<path fill="#E10000" opacity="1.000000" stroke="none" 
	d="
M360.999115,450.832977 
	C354.308167,450.883179 347.617188,450.933350 340.463135,450.450348 
	C340.001709,375.684479 340.003418,301.451843 340.467712,227.142426 
	C347.620453,227.121292 354.310669,227.176910 361.001526,227.686615 
	C361.001129,302.371460 361.000122,376.602203 360.999115,450.832977 
z"/>
<path fill="#C20000" opacity="1.000000" stroke="none" 
	d="
M300.998718,450.833038 
	C294.640930,450.883453 288.283142,450.933899 281.462708,450.450714 
	C280.982758,375.682404 280.965454,301.447754 281.403503,227.149109 
	C285.563538,227.006668 289.268188,226.928223 293.420227,226.921692 
	C296.580231,227.065948 299.292877,227.138306 302.004456,227.615738 
	C301.718567,235.135284 301.229218,242.249191 301.209290,249.364410 
	C301.191193,255.813538 301.803406,262.261993 301.918549,268.714630 
	C302.028259,274.865601 301.830505,281.021545 301.812378,287.175446 
	C301.792023,294.091553 301.858734,301.008057 301.818481,307.923981 
	C301.779877,314.559570 301.619354,321.194489 301.574127,327.830078 
	C301.530182,334.276550 301.530304,340.723816 301.574280,347.170288 
	C301.619507,353.805908 301.779846,360.440796 301.818451,367.076416 
	C301.858704,373.992340 301.815338,380.908752 301.805664,387.824951 
	C301.796570,394.305237 301.834167,400.786072 301.758453,407.265625 
	C301.683105,413.713745 301.470123,420.160126 301.357544,426.608002 
	C301.216583,434.682648 301.116455,442.757996 300.998718,450.833038 
z"/>
<path fill="#ED0000" opacity="1.000000" stroke="none" 
	d="
M361.462280,450.908112 
	C361.000122,376.602203 361.001129,302.371460 361.464844,227.612274 
	C368.284302,227.136978 374.641113,227.190125 380.997925,227.243286 
	C380.998627,301.467926 380.999329,375.692566 381.000092,450.375122 
	C374.641937,450.883118 368.283661,450.933167 361.462280,450.908112 
z"/>
<path fill="#880000" opacity="1.000000" stroke="none" 
	d="
M193.997772,450.832947 
	C187.640060,450.883972 181.282333,450.934998 174.462082,450.451599 
	C174.001892,375.681244 174.004257,301.445343 174.440613,227.143707 
	C176.918976,227.005600 178.963333,226.933243 181.466873,226.923706 
	C185.952820,227.065048 189.979599,227.143570 194.004684,227.676849 
	C194.001251,302.365356 193.999512,376.599152 193.997772,450.832947 
z"/>
<path fill="#B70000" opacity="1.000000" stroke="none" 
	d="
M280.948151,227.213104 
	C280.965454,301.447754 280.982758,375.682404 280.999695,450.375000 
	C274.641327,450.883453 268.283325,450.933990 261.462646,450.450806 
	C261.001404,375.684753 261.002777,301.452362 261.376526,227.148529 
	C262.501373,227.005051 263.253815,226.933044 264.467224,226.932739 
	C269.620605,226.954712 274.312988,226.904953 279.242401,226.928680 
	C279.968994,227.072464 280.458557,227.142776 280.948151,227.213104 
z"/>
<path fill="#CD0000" opacity="1.000000" stroke="none" 
	d="
M301.461853,450.908539 
	C301.116455,442.757996 301.216583,434.682648 301.357544,426.608002 
	C301.470123,420.160126 301.683105,413.713745 301.758453,407.265625 
	C301.834167,400.786072 301.796570,394.305237 301.805664,387.824951 
	C301.815338,380.908752 301.858704,373.992340 301.818451,367.076416 
	C301.779846,360.440796 301.619507,353.805908 301.574280,347.170288 
	C301.530304,340.723816 301.530182,334.276550 301.574127,327.830078 
	C301.619354,321.194489 301.779877,314.559570 301.818481,307.923981 
	C301.858734,301.008057 301.792023,294.091553 301.812378,287.175446 
	C301.830505,281.021545 302.028259,274.865601 301.918549,268.714630 
	C301.803406,262.261993 301.191193,255.813538 301.209290,249.364410 
	C301.229218,242.249191 301.718567,235.135284 302.466858,227.539459 
	C308.954498,227.114029 314.978729,227.169983 321.002747,227.680420 
	C321.001282,302.367615 321.000031,376.600281 320.998810,450.832977 
	C314.640869,450.883331 308.282898,450.933685 301.461853,450.908539 
z"/>
<path fill="#D70000" opacity="1.000000" stroke="none" 
	d="
M321.461792,450.908325 
	C321.000031,376.600281 321.001282,302.367615 321.375946,227.606308 
	C322.503723,227.005478 323.258057,226.933258 324.473511,226.933594 
	C329.958160,227.077179 334.981628,227.148178 340.005127,227.219177 
	C340.003418,301.451843 340.001709,375.684479 339.999969,450.375092 
	C333.974884,450.883270 327.949860,450.933472 321.461792,450.908325 
z"/>
<path fill="#930000" opacity="1.000000" stroke="none" 
	d="
M194.460693,450.909302 
	C193.999512,376.599152 194.001251,302.365356 194.336304,227.606293 
	C195.114960,227.009232 195.560318,226.937439 196.466278,226.930481 
	C201.286926,226.948273 205.646988,226.901215 210.379761,226.919617 
	C211.503616,227.060135 212.254745,227.135208 213.004364,227.665741 
	C213.001282,302.358490 212.999725,376.595734 212.998169,450.833008 
	C206.973312,450.883881 200.948471,450.934784 194.460693,450.909302 
z"/>
<path fill="#7E0000" opacity="1.000000" stroke="none" 
	d="
M174.006622,227.209457 
	C174.004257,301.445343 174.001892,375.681244 173.999146,450.375092 
	C168.307129,450.884064 162.615509,450.935059 156.461807,450.451660 
	C156.002029,375.672821 156.004318,301.428375 156.469879,227.116058 
	C162.624313,227.101913 168.315460,227.155685 174.006622,227.209457 
z"/>
<path fill="#AD0000" opacity="1.000000" stroke="none" 
	d="
M261.004120,227.220001 
	C261.002777,301.452362 261.001404,375.684753 260.999695,450.375061 
	C255.640854,450.883453 250.282364,450.933960 244.461899,450.450806 
	C244.001297,375.684784 244.002686,301.452484 244.417084,227.149017 
	C246.222443,227.005249 247.614777,226.932617 249.462845,226.930130 
	C253.613754,227.073517 257.308929,227.146759 261.004120,227.220001 
z"/>
<path fill="#FD0000" opacity="1.000000" stroke="none" 
	d="
M396.454041,450.908020 
	C396.000854,331.193085 396.002289,211.552963 396.006653,91.442360 
	C399.285919,91.993408 402.562317,93.014923 406.041229,94.099579 
	C406.041229,104.381142 406.041229,114.431595 406.100739,124.983307 
	C406.137726,150.932709 406.115173,176.380829 406.128357,202.275864 
	C406.109253,233.645767 406.035522,264.568756 406.009430,295.491791 
	C405.999603,307.126801 406.100250,318.761871 406.463470,330.676758 
	C406.776398,330.956573 406.949310,331.414917 406.606506,331.926636 
	C406.189209,353.107147 406.107910,373.776001 406.077545,394.444885 
	C406.076752,394.988708 406.630737,395.533325 406.925964,396.077545 
	C406.940582,396.509796 406.955200,396.942047 406.898865,397.691223 
	C406.551880,399.709229 406.042633,401.409363 406.036011,403.111511 
	C405.974548,418.895996 405.999725,434.680847 405.999725,450.982819 
	C402.782104,450.982819 399.845398,450.982819 396.454041,450.908020 
z"/>
<path fill="#9D0000" opacity="1.000000" stroke="none" 
	d="
M213.459732,450.909058 
	C212.999725,376.595734 213.001282,302.358490 213.458008,227.595840 
	C217.280396,226.995819 220.647629,226.921158 224.427551,226.912354 
	C226.228668,227.053543 227.617096,227.128891 229.004120,227.660095 
	C229.001312,302.354980 228.999908,376.593994 228.998505,450.833038 
	C223.972763,450.883728 218.947037,450.934418 213.459732,450.909058 
z"/>
<path fill="#750000" opacity="1.000000" stroke="none" 
	d="
M156.006622,227.183960 
	C156.004318,301.428375 156.002029,375.672821 155.999329,450.375214 
	C150.973160,450.884216 145.947372,450.935242 140.460602,450.451721 
	C140.001877,375.679413 140.004150,301.441650 140.468872,227.141754 
	C145.628754,227.006699 150.326202,226.933792 155.271790,226.934387 
	C155.682159,227.066574 155.844391,227.125275 156.006622,227.183960 
z"/>
<path fill="#6D0000" opacity="1.000000" stroke="none" 
	d="
M140.006409,227.203903 
	C140.004150,301.441650 140.001877,375.679413 139.999207,450.375122 
	C134.973083,450.884216 129.947342,450.935333 124.460617,450.451782 
	C123.999756,378.283844 123.989243,306.650574 124.042419,235.017349 
	C124.044365,232.401688 124.670868,229.786484 125.468857,227.111328 
	C130.623077,227.102371 135.314743,227.153137 140.006409,227.203903 
z"/>
<path fill="#A50000" opacity="1.000000" stroke="none" 
	d="
M229.459335,450.908844 
	C228.999908,376.593994 229.001312,302.354980 229.464783,227.586517 
	C234.619247,227.111435 239.311661,227.165787 244.004059,227.220154 
	C244.002686,301.452484 244.001297,375.684784 243.999695,450.375061 
	C239.306366,450.883514 234.613266,450.934082 229.459335,450.908844 
z"/>
<path fill="#640000" opacity="1.000000" stroke="none" 
	d="
M125.006302,227.171066 
	C124.670868,229.786484 124.044365,232.401688 124.042419,235.017349 
	C123.989243,306.650574 123.999756,378.283844 123.999237,450.375122 
	C119.970573,450.884064 115.942307,450.935028 111.456161,450.909485 
	C110.999565,376.576508 111.000824,302.320007 111.465012,227.545715 
	C116.287392,227.075653 120.646851,227.123352 125.006302,227.171066 
z"/>
<path fill="#AD0000" opacity="1.000000" stroke="none" 
	d="
M239.728943,37.865059 
	C242.339737,37.657955 245.119446,36.779774 247.525665,37.385426 
	C252.324051,38.593189 256.917389,40.615685 261.666260,42.962151 
	C261.491394,45.578899 261.034607,47.534832 261.031616,49.491455 
	C260.986145,79.319016 260.889404,109.147240 261.044647,138.974075 
	C261.127686,154.926819 261.668915,170.877151 261.544769,186.900177 
	C257.060211,187.036316 253.034241,187.100845 248.575043,187.092712 
	C246.096176,186.957642 244.050552,186.895233 242.003311,186.374664 
	C242.001129,138.734070 242.030685,91.551567 241.903702,44.369484 
	C241.897842,42.199406 240.485977,40.033115 239.728943,37.865059 
z"/>
<path fill="#A20000" opacity="1.000000" stroke="none" 
	d="
M239.351624,37.884071 
	C240.485977,40.033115 241.897842,42.199406 241.903702,44.369484 
	C242.030685,91.551567 242.001129,138.734070 241.539825,186.446442 
	C235.391144,187.042236 229.704300,187.108078 223.765747,187.083267 
	C223.344254,186.937851 223.174515,186.883072 223.003204,186.370392 
	C222.988724,138.573074 222.975800,91.233658 222.962875,43.894230 
	C228.300018,41.897182 233.637146,39.900131 239.351624,37.884071 
z"/>
<path fill="#B70000" opacity="1.000000" stroke="none" 
	d="
M262.003357,186.828583 
	C261.668915,170.877151 261.127686,154.926819 261.044647,138.974075 
	C260.889404,109.147240 260.986145,79.319016 261.031616,49.491455 
	C261.034607,47.534832 261.491394,45.578899 261.906464,43.227203 
	C267.834778,44.822407 273.593750,46.813057 279.675964,49.443001 
	C280.001068,95.667099 280.002899,141.251907 279.756287,186.923218 
	C279.340759,187.062912 279.173645,187.116135 278.545135,187.095581 
	C273.391632,187.069016 268.699493,187.116211 263.676514,187.087433 
	C262.898224,186.950485 262.450775,186.889542 262.003357,186.828583 
z"/>
<path fill="#780000" opacity="1.000000" stroke="none" 
	d="
M142.844147,72.490829 
	C148.952103,70.276817 155.060059,68.062798 161.570541,66.301773 
	C161.982056,106.173180 161.971832,145.591644 162.046432,185.009949 
	C162.051041,187.441605 162.724182,189.871979 162.887848,192.560425 
	C159.802353,194.586655 156.915298,196.355408 153.688599,198.195557 
	C150.246201,199.906464 147.143463,201.545959 143.883148,202.785629 
	C143.483704,200.268616 143.035324,198.151932 143.030533,196.034210 
	C142.937439,154.853165 142.896103,113.671982 142.844147,72.490829 
z"/>
<path fill="#6D0000" opacity="1.000000" stroke="none" 
	d="
M142.468262,72.587463 
	C142.896103,113.671982 142.937439,154.853165 143.030533,196.034210 
	C143.035324,198.151932 143.483704,200.268616 143.676331,203.040970 
	C138.089447,206.818954 132.551773,209.941757 126.960098,212.645020 
	C126.603966,209.777695 126.043335,207.330475 126.038162,204.882065 
	C125.949387,162.823364 125.929169,120.764534 125.893913,78.705727 
	C131.293396,76.698517 136.692886,74.691307 142.468262,72.587463 
z"/>
<path fill="#990000" opacity="1.000000" stroke="none" 
	d="
M222.581299,43.902882 
	C222.975800,91.233658 222.988724,138.573074 222.546707,186.439331 
	C218.396378,187.031967 214.701004,187.097778 210.609100,187.093903 
	C209.142624,186.958710 208.072708,186.893204 207.001968,186.369843 
	C207.000961,179.917328 207.006851,173.922668 206.999557,167.928009 
	C206.951569,128.464706 206.900757,89.001411 206.850861,49.538116 
	C211.967148,47.662590 217.083450,45.787060 222.581299,43.902882 
z"/>
<path fill="#C20000" opacity="1.000000" stroke="none" 
	d="
M280.004730,186.836716 
	C280.002899,141.251907 280.001068,95.667099 279.999054,49.624439 
	C285.442078,51.075287 290.885284,52.983982 296.655151,55.431690 
	C296.829254,60.000553 296.550659,64.030472 296.552521,68.060249 
	C296.555603,74.693581 296.860321,81.327652 296.814117,87.959854 
	C296.769165,94.411545 296.268799,100.861816 296.288940,107.311714 
	C296.309631,113.931183 296.940277,120.550659 296.903748,127.167923 
	C296.852997,136.365021 296.202728,145.560577 296.224701,154.755814 
	C296.250214,165.451614 296.724762,176.146378 296.609863,186.917572 
	C295.147949,187.053818 294.080627,187.114090 292.554810,187.096497 
	C288.065796,186.958008 284.035278,186.897354 280.004730,186.836716 
z"/>
<path fill="#820000" opacity="1.000000" stroke="none" 
	d="
M163.086273,192.302948 
	C162.724182,189.871979 162.051041,187.441605 162.046432,185.009949 
	C161.971832,145.591644 161.982056,106.173180 161.954376,66.272705 
	C167.331284,63.778622 172.726898,61.766582 178.536194,60.181152 
	C178.967728,102.682465 178.985580,144.757172 178.577271,186.895767 
	C172.163300,186.016647 167.906174,189.953140 163.086273,192.302948 
z"/>
<path fill="#D90000" opacity="1.000000" stroke="none" 
	d="
M326.999329,66.100555 
	C332.175568,67.871376 337.351807,69.642197 342.768311,72.147644 
	C343.005737,113.174278 343.023254,153.466309 342.955597,193.758194 
	C342.950928,196.540192 342.311371,199.321136 341.609467,202.049042 
	C336.308624,199.273483 331.365356,196.551422 326.342529,193.595657 
	C326.262970,193.361938 326.018372,192.933014 326.014648,192.508270 
	C326.340607,186.811295 326.944061,181.539688 326.955994,176.266724 
	C327.039124,139.544830 326.999573,102.822647 326.999329,66.100555 
z"/>
<path fill="#E10000" opacity="1.000000" stroke="none" 
	d="
M341.967041,202.102570 
	C342.311371,199.321136 342.950928,196.540192 342.955597,193.758194 
	C343.023254,153.466309 343.005737,113.174278 343.015228,72.409576 
	C347.797882,73.566460 352.573883,75.196053 357.674316,77.462738 
	C357.999146,119.727119 358.017487,161.354431 357.957336,202.981613 
	C357.953583,205.597107 357.336578,208.211716 356.654724,210.770020 
	C351.525391,207.843063 346.746216,204.972809 341.967041,202.102570 
z"/>
<path fill="#C90000" opacity="1.000000" stroke="none" 
	d="
M297.004456,186.841583 
	C296.724762,176.146378 296.250214,165.451614 296.224701,154.755814 
	C296.202728,145.560577 296.852997,136.365021 296.903748,127.167923 
	C296.940277,120.550659 296.309631,113.931183 296.288940,107.311714 
	C296.268799,100.861816 296.769165,94.411545 296.814117,87.959854 
	C296.860321,81.327652 296.555603,74.693581 296.552521,68.060249 
	C296.550659,64.030472 296.829254,60.000553 296.989380,55.600365 
	C301.861481,56.910995 306.726074,58.591965 311.810791,61.016014 
	C312.021545,103.450058 312.012115,145.141022 311.541565,186.906265 
	C306.388458,186.934235 301.696442,186.887909 297.004456,186.841583 
z"/>
<path fill="#640000" opacity="1.000000" stroke="none" 
	d="
M125.511063,78.752541 
	C125.929169,120.764534 125.949387,162.823364 126.038162,204.882065 
	C126.043335,207.330475 126.603966,209.777695 126.755043,212.911377 
	C122.115341,216.079529 117.626694,218.561783 113.138046,221.044037 
	C112.758598,219.177460 112.050827,217.311371 112.047958,215.444214 
	C111.984825,174.206726 112.013802,132.969116 111.961853,91.731606 
	C111.958977,89.449203 111.408386,87.167488 111.056427,84.474487 
	C115.709496,82.308792 120.418861,80.554077 125.511063,78.752541 
z"/>
<path fill="#D00000" opacity="1.000000" stroke="none" 
	d="
M312.002716,186.832001 
	C312.012115,145.141022 312.021545,103.450058 312.052795,61.277527 
	C316.812195,62.484695 321.549774,64.173439 326.643341,65.981369 
	C326.999573,102.822647 327.039124,139.544830 326.955994,176.266724 
	C326.944061,181.539688 326.340607,186.811295 325.665405,192.463135 
	C320.880829,190.839172 316.441772,188.835587 312.002716,186.832001 
z"/>
<path fill="#930000" opacity="1.000000" stroke="none" 
	d="
M206.471100,49.620216 
	C206.900757,89.001411 206.951569,128.464706 206.999557,167.928009 
	C207.006851,173.922668 207.000961,179.917328 206.545364,186.437134 
	C202.396133,187.028778 198.702713,187.095276 194.677979,187.089722 
	C193.899673,186.954437 193.452667,186.891220 193.003815,186.370132 
	C192.955353,142.136993 192.908707,98.361732 192.862061,54.586472 
	C197.271835,52.958420 201.681595,51.330368 206.471100,49.620216 
z"/>
<path fill="#880000" opacity="1.000000" stroke="none" 
	d="
M192.478577,54.658165 
	C192.908707,98.361732 192.955353,142.136993 192.546997,186.437317 
	C188.397415,187.029449 184.702850,187.096542 180.676392,187.093964 
	C179.897507,186.960159 179.450470,186.896011 179.003448,186.831879 
	C178.985580,144.757172 178.967728,102.682465 178.918030,60.114502 
	C183.289185,57.990780 187.692139,56.360321 192.478577,54.658165 
z"/>
<path fill="#F00000" opacity="1.000000" stroke="none" 
	d="
M383.671173,87.012665 
	C383.999603,130.825012 384.012909,174.483536 383.963074,218.141983 
	C383.960480,220.429184 383.421692,222.715759 382.731812,225.350800 
	C378.554871,223.418701 374.778687,221.138428 371.002289,218.398392 
	C371.003479,172.618393 371.004883,127.298149 371.006256,81.977905 
	C375.118500,83.604889 379.230713,85.231865 383.671173,87.012665 
z"/>
<path fill="#E90000" opacity="1.000000" stroke="none" 
	d="
M370.755402,81.720398 
	C371.004883,127.298149 371.003479,172.618393 370.657379,218.352081 
	C365.876740,216.119263 361.440796,213.472992 357.004883,210.826736 
	C357.336578,208.211716 357.953583,205.597107 357.957336,202.981613 
	C358.017487,161.354431 357.999146,119.727119 357.998230,77.643326 
	C362.166656,78.612160 366.335602,80.037521 370.755402,81.720398 
z"/>
<path fill="#4C4C4C" opacity="1.000000" stroke="none" 
	d="
M82.010422,395.667297 
	C81.591492,395.459686 80.928719,394.774078 80.930420,394.090088 
	C80.980621,373.831329 81.096771,353.572784 81.573364,333.069519 
	C81.988289,353.613281 82.032303,374.401672 82.010422,395.667297 
z"/>
<path fill="#4C4C4C" opacity="1.000000" stroke="none" 
	d="
M406.988708,395.607147 
	C406.630737,395.533325 406.076752,394.988708 406.077545,394.444885 
	C406.107910,373.776001 406.189209,353.107147 406.604187,332.171509 
	C406.980255,352.982056 407.015839,374.059418 406.988708,395.607147 
z"/>
<path fill="#0B8BE6" opacity="1.000000" stroke="none" 
	d="
M356.654724,210.770020 
	C361.440796,213.472992 365.876740,216.119263 370.657562,218.811829 
	C374.778687,221.138428 378.554871,223.418701 382.666748,225.752533 
	C382.521698,226.236832 382.040955,226.667572 381.279053,227.170807 
	C374.641113,227.190125 368.284302,227.136978 361.464172,227.158188 
	C354.310669,227.176910 347.620453,227.121292 340.467712,227.142426 
	C334.981628,227.148178 329.958160,227.077179 324.469666,226.474014 
	C324.003387,216.778061 323.889587,207.611557 324.109497,198.453064 
	C324.146942,196.894226 325.614960,195.369720 326.422058,193.829376 
	C331.365356,196.551422 336.308624,199.273483 341.609467,202.049042 
	C346.746216,204.972809 351.525391,207.843063 356.654724,210.770020 
z"/>
<path fill="#1E1377" opacity="1.000000" stroke="none" 
	d="
M112.920532,221.315399 
	C117.626694,218.561783 122.115341,216.079529 126.809036,213.330902 
	C132.551773,209.941757 138.089447,206.818954 143.833923,203.440811 
	C147.143463,201.545959 150.246201,199.906464 153.740967,198.600174 
	C154.421783,200.858017 154.932480,202.779449 154.960022,204.707809 
	C155.065414,212.090973 155.015549,219.476349 155.023636,226.860901 
	C150.326202,226.933792 145.628754,227.006699 140.468872,227.141754 
	C135.314743,227.153137 130.623077,227.102371 125.468857,227.111328 
	C120.646851,227.123352 116.287392,227.075653 111.466599,227.086105 
	C108.736557,227.044510 106.467850,226.944733 103.783615,226.826691 
	C106.961815,224.959564 109.832413,223.273163 112.920532,221.315399 
z"/>
<path fill="#0D7AD6" opacity="1.000000" stroke="none" 
	d="
M326.342529,193.595642 
	C325.614960,195.369720 324.146942,196.894226 324.109497,198.453064 
	C323.889587,207.611557 324.003387,216.778061 324.008545,226.401428 
	C323.258057,226.933258 322.503723,227.005478 321.376160,227.151810 
	C314.978729,227.169983 308.954498,227.114029 302.467896,227.134369 
	C299.292877,227.138306 296.580231,227.065948 293.430115,226.462860 
	C292.999512,213.012878 293.006409,200.093613 293.013306,187.174362 
	C294.080627,187.114090 295.147949,187.053818 296.609863,186.917572 
	C301.696442,186.887909 306.388458,186.934235 311.541565,186.906281 
	C316.441772,188.835587 320.880829,190.839172 325.669128,192.887878 
	C326.018372,192.933014 326.262970,193.361938 326.342529,193.595642 
z"/>
<path fill="#0F6CC9" opacity="1.000000" stroke="none" 
	d="
M292.554810,187.096497 
	C293.006409,200.093613 292.999512,213.012878 292.982727,226.390961 
	C289.268188,226.928223 285.563538,227.006668 281.403503,227.149109 
	C280.458557,227.142776 279.968994,227.072464 279.240723,226.469650 
	C279.003540,213.014542 279.005035,200.091949 279.006531,187.169342 
	C279.173645,187.116135 279.340759,187.062912 279.756287,186.923218 
	C284.035278,186.897354 288.065796,186.958008 292.554810,187.096497 
z"/>
<path fill="#1A2A8D" opacity="1.000000" stroke="none" 
	d="
M155.271790,226.934387 
	C155.015549,219.476349 155.065414,212.090973 154.960022,204.707809 
	C154.932480,202.779449 154.421783,200.858017 154.080627,198.528778 
	C156.915298,196.355408 159.802353,194.586655 162.887848,192.560425 
	C167.906174,189.953140 172.163300,186.016647 178.577271,186.895752 
	C179.450470,186.896011 179.897507,186.960159 180.673676,187.550507 
	C181.004456,201.004761 181.006088,213.932831 181.007706,226.860870 
	C178.963333,226.933243 176.918976,227.005600 174.440613,227.143707 
	C168.315460,227.155685 162.624313,227.101913 156.469879,227.116058 
	C155.844391,227.125275 155.682159,227.066574 155.271790,226.934387 
z"/>
<path fill="#193294" opacity="1.000000" stroke="none" 
	d="
M181.466873,226.923706 
	C181.006088,213.932831 181.004456,201.004761 181.005554,187.620178 
	C184.702850,187.096542 188.397415,187.029449 192.548828,186.895172 
	C193.452667,186.891220 193.899673,186.954437 194.675079,187.505829 
	C195.009323,196.803680 194.914734,205.615067 195.065186,214.422287 
	C195.136108,218.574219 195.677460,222.718109 196.005676,226.865646 
	C195.560318,226.937439 195.114960,227.009232 194.337982,227.151566 
	C189.979599,227.143570 185.952820,227.065048 181.466873,226.923706 
z"/>
<path fill="#125AB9" opacity="1.000000" stroke="none" 
	d="
M261.544739,186.900177 
	C262.450775,186.889542 262.898224,186.950485 263.674072,187.545227 
	C264.003784,201.006348 264.005035,213.933685 264.006287,226.861023 
	C263.253815,226.933044 262.501373,227.005051 261.376526,227.148529 
	C257.308929,227.146759 253.613754,227.073517 249.460571,226.470993 
	C249.004456,213.016266 249.006363,200.090836 249.008270,187.165390 
	C253.034241,187.100845 257.060211,187.036316 261.544739,186.900177 
z"/>
<path fill="#1163C1" opacity="1.000000" stroke="none" 
	d="
M264.467224,226.932755 
	C264.005035,213.933685 264.003784,201.006348 264.004944,187.621201 
	C268.699493,187.116211 273.391632,187.069016 278.545135,187.095581 
	C279.005035,200.091949 279.003540,213.014542 279.003723,226.396179 
	C274.312988,226.904953 269.620605,226.954712 264.467224,226.932755 
z"/>
<path fill="#173B9C" opacity="1.000000" stroke="none" 
	d="
M196.466263,226.930481 
	C195.677460,222.718109 195.136108,218.574219 195.065186,214.422287 
	C194.914734,205.615067 195.009323,196.803680 195.006363,187.577896 
	C198.702713,187.095276 202.396133,187.028778 206.546173,186.894989 
	C208.072708,186.893204 209.142624,186.958710 210.552185,187.472687 
	C210.883453,190.469391 210.923294,193.018860 210.858276,195.565659 
	C210.591934,205.995605 210.293610,216.424728 210.007050,226.854156 
	C205.646988,226.901215 201.286926,226.948273 196.466263,226.930481 
z"/>
<path fill="#1644A4" opacity="1.000000" stroke="none" 
	d="
M210.379776,226.919617 
	C210.293610,216.424728 210.591934,205.995605 210.858276,195.565659 
	C210.923294,193.018860 210.883453,190.469391 210.948730,187.542358 
	C214.701004,187.097778 218.396378,187.031967 222.548248,186.897217 
	C223.174515,186.883072 223.344254,186.937851 223.761627,187.539978 
	C224.011093,201.007065 224.012970,213.926788 224.014847,226.846527 
	C220.647629,226.921158 217.280396,226.995819 213.459534,227.140366 
	C212.254745,227.135208 211.503616,227.060135 210.379776,226.919617 
z"/>
<path fill="#1452B1" opacity="1.000000" stroke="none" 
	d="
M224.427551,226.912354 
	C224.012970,213.926788 224.011093,201.007065 224.013351,187.630615 
	C229.704300,187.108078 235.391144,187.042236 241.541443,186.904633 
	C244.050552,186.895233 246.096176,186.957642 248.575043,187.092712 
	C249.006363,200.090836 249.004456,213.016266 249.004837,226.400848 
	C247.614777,226.932617 246.222443,227.005249 244.417084,227.149017 
	C239.311661,227.165787 234.619247,227.111435 229.466187,227.130661 
	C227.617096,227.128891 226.228668,227.053543 224.427551,226.912354 
z"/>
</svg>